<?xml version="1.0" encoding="iso-8859-1"?>
<!-- Generator: Adobe Illustrator 19.0.0, SVG Export Plug-In . SVG Version: 6.00 Build 0)  -->
<svg version="1.1" id="Layer_1" xmlns="http://www.w3.org/2000/svg" xmlns:xlink="http://www.w3.org/1999/xlink" x="0px" y="0px"
	 viewBox="0 0 290.625 290.625" style="enable-background:new 0 0 290.625 290.625;" xml:space="preserve">
<g>
	<g>
		<g>
			<path d="M194.78,155.18c-19.252,9.628-19.219,32.241-16.505,42.853l1.064,4.172l4.247-0.708
				c28.078-4.678,49.055-23.484,54.984-35.339l1.748-3.502l-3.131-2.344C236.33,159.67,215.873,144.637,194.78,155.18z
				 M186.647,191.334c-0.75-7.209-0.417-21.394,12.323-27.764c3.919-1.959,7.884-2.7,11.63-2.7c7.139,0,13.5,2.681,17.297,4.711
				C221.92,173.667,207.455,186.492,186.647,191.334z"/>
			<path d="M290.625,93.75c0-37.331-21.741-75-70.313-75c-26.925,0-47.667,10.388-69.356,34.734
				C115.416,93.38,93.145,103.125,37.5,103.125c-27.516,0-37.5,22.425-37.5,37.5c0,1.556,0.089,3.122,0.225,4.688H0v46.875
				l0.206,1.378c8.503,27.609,64.716,78.309,131.044,78.309c113.517,0,159.375-86.011,159.375-121.875V98.438H290.4
				C290.536,96.811,290.625,95.227,290.625,93.75z M281.25,150c0,33.108-43.163,112.5-150,112.5
				c-60.53,0-113.573-46.261-121.875-71.048v-18.694c1.702,2.845,3.581,5.63,5.714,8.297c18.811,23.512,57.97,48.633,111.473,48.633
				c70.538,0,130.959-37.317,154.688-94.167V150z M276.77,120.492c-18.445,59.705-78.811,99.82-150.206,99.82
				c-50.18,0-86.705-23.306-104.152-45.117c-8.405-10.505-13.036-22.786-13.036-34.57C9.375,130.898,15.253,112.5,37.5,112.5
				c58.341,0,83.105-10.852,120.455-52.781c19.992-22.439,38.058-31.594,62.358-31.594c42.094,0,60.938,32.958,60.938,65.625
				C281.251,102.117,278.157,115.678,276.77,120.492z"/>
			<path d="M220.313,32.813c-31.017,0-56.25,25.233-56.25,56.25c0,31.017,25.232,56.25,56.25,56.25
				c31.017,0,56.25-25.233,56.25-56.25C276.563,58.046,251.33,32.813,220.313,32.813z M220.313,135.938
				c-25.847,0-46.875-21.028-46.875-46.875s21.028-46.875,46.875-46.875c25.847,0,46.875,21.028,46.875,46.875
				S246.16,135.938,220.313,135.938z"/>
			<path d="M157.289,108.6c-6.117-4.078-22.936-12.267-46.884-0.295c-9.703,4.852-29.995,8.175-54.291,8.883l0.272,9.375
				c12.291-0.361,42.558-2.044,58.209-9.867c19.561-9.783,32.733-3.464,37.491-0.295c11.058,7.369,16.664,18.675,16.669,33.6
				c0.005,12.623-3.314,42.942-34.102,51.741c-17.245,4.927-46.781-3.675-66.928-13.748c-19.144-9.567-39.6-27.038-39.6-47.367
				c0-6.038,1.945-14.063,18.75-14.063v-9.375c-24.473,0-28.125,14.686-28.125,23.438c0,24.598,23.133,44.928,44.78,55.756
				c17.63,8.813,40.842,16.134,59.564,16.134c5.114,0,9.895-0.548,14.133-1.758c37.969-10.847,40.908-49.247,40.903-60.759
				C178.125,132.005,170.916,117.689,157.289,108.6z"/>
			<path d="M159.375,150c0-12.923-10.514-23.438-23.438-23.438S112.5,137.077,112.5,150c0,12.923,10.514,23.438,23.438,23.438
				S159.375,162.923,159.375,150z M121.875,150c0-7.753,6.309-14.063,14.063-14.063c7.754,0,14.062,6.31,14.062,14.063
				s-6.309,14.063-14.063,14.063C128.183,164.063,121.875,157.753,121.875,150z"/>
			<path d="M220.313,117.188v9.375c20.676,0,37.5-16.824,37.5-37.5h-9.375C248.438,104.574,235.824,117.188,220.313,117.188z"/>
			<path d="M91.467,239.728l-4.814,8.044c0.867,0.52,18.698,11.006,45.131,11.006c4.495,0,9.244-0.305,14.194-1.012l-1.327-9.277
				C114.019,252.858,91.688,239.855,91.467,239.728z"/>
			<path d="M154.598,248.438l0.089,9.375c0.909,0,6.159-0.239,20.231-4.927l-2.967-8.892
				C159.244,248.227,154.645,248.438,154.598,248.438z"/>
		</g>
	</g>
</g>
<g>
</g>
<g>
</g>
<g>
</g>
<g>
</g>
<g>
</g>
<g>
</g>
<g>
</g>
<g>
</g>
<g>
</g>
<g>
</g>
<g>
</g>
<g>
</g>
<g>
</g>
<g>
</g>
<g>
</g>
</svg>
