<svg id="Capa_1" enable-background="new 0 0 512 512" height="512" viewBox="0 0 512 512" width="512" xmlns="http://www.w3.org/2000/svg"><path d="m150.871 271.809c.003-.003.005-.005.008-.008s.005-.005.008-.007c-.006.005-.011.009-.016.015z" fill="none"/><path d="m91.15 328.831-.013.012s0 0 .001-.001c.005-.005.012-.011.017-.016 0 .001-.003.004-.005.005z" fill="none"/><path d="m150.933 271.749c.003-.003.006-.006.009-.008.007-.006.015-.014.021-.02-.011.009-.02.019-.03.028z" fill="none"/><path d="m91.061 328.917c.005-.005.011-.01.016-.016.003-.002.005-.004.007-.007z" fill="none"/><path d="m91.138 328.844.013-.012c-.004.004-.009.009-.016.015.001-.002.002-.002.003-.003z" fill="#ffda2d"/><path d="m91.123 328.857.008-.007-.006.005z" fill="#ffda2d"/><path d="m90.995 328.98.005-.005z" fill="#ffda2d"/><path d="m91.061 328.917.023-.022c.006-.005.011-.011.016-.016-.017.016-.032.031-.045.043.002-.002.004-.003.006-.005z" fill="#ffda2d"/><path d="m91.125 328.855c.003-.003.006-.006.009-.008-.008.008-.02.019-.033.032.008-.008.015-.015.024-.024z" fill="#ffda2d"/><g fill="#fdbf00"><path d="m150.704 271.968c.006-.005.011-.011.017-.016.021-.021.044-.042.066-.063.014-.013.027-.026.039-.038.004-.004.008-.007.012-.011.012-.011.022-.021.033-.031.005-.005.01-.01.016-.015.017-.016.032-.031.046-.044.01-.009.02-.019.03-.028l.005-.005.006-.006c-.118.111-.206.196-.27.257z"/><path d="m91.01 328.965c.006-.005.01-.01.018-.017.002-.002.006-.006.009-.009z"/><path d="m91.15 328.831.006-.005z"/><path d="m150.988 271.697c.004-.004.008-.007.012-.012-.003.003-.008.007-.014.013.001 0 .001-.001.002-.001z"/><path d="m91.156 328.826.002-.001z"/><path d="m91 328.975c.011-.01.019-.018.028-.027-.008.007-.012.012-.018.017z"/><path d="m91.037 328.939c-.003.002-.007.006-.009.009.018-.017.035-.033.049-.047-.005.005-.011.01-.016.016z"/><path d="m150.561 272.104c.005-.004.009-.008.013-.013-.01.01-.013.013-.013.013z"/><path d="m90.995 328.98-.009.008s.003-.003.009-.008z"/><path d="m91.155 328.827c-.005.005-.012.011-.017.016.008-.008.014-.013.017-.016z"/><path d="m150.574 272.092c.004-.004.01-.01.017-.016.005-.004.01-.01.016-.015.005-.005.011-.01.016-.016-.016.015-.032.03-.049.047z"/><path d="m150.623 272.045c.022-.021.044-.042.064-.061-.026.025-.046.044-.064.061z"/><path d="m150.687 271.984c.006-.005.011-.01.017-.016-.006.005-.011.01-.017.016z"/><path d="m150.983 271.701c-.005.005-.01.009-.016.015 0 0-.001.001-.001.001.008-.008.016-.015.024-.023-.001.001-.001.001-.002.002-.002.002-.004.004-.005.005z"/><path d="m150.826 271.851c-.007.007-.015.014-.022.021.02-.019.039-.038.06-.057-.009.008-.017.016-.026.024-.004.004-.008.008-.012.012z"/><path d="m150.607 272.06c-.006.006-.011.011-.016.015-.019.018-.03.029-.03.029-1.54 1.47-7.79 7.437-29.561 28.221l-29.842 28.5c-.001 0-.001.001-.002.001 1.184-1.13 9.715-9.276 59.61-56.917-.013.013-.03.028-.044.042-.046.043-.086.081-.115.109z"/><path d="m91.131 328.85.007-.007v.001z"/><path d="m91.077 328.901c.017-.016.032-.031.046-.044l-.039.037c-.002.003-.004.005-.007.007z"/><path d="m150.783 271.893.005-.005h-.001z"/><path d="m91.037 328.939.024-.022c-.002.002-.004.003-.005.005-.007.006-.013.012-.019.017z"/><path d="m91 328.975.01-.01.027-.026c.005-.005.012-.011.018-.017-.022.021-.042.04-.055.053z"/><path d="m91.135 328.846c0 .001-.001.001 0 0-.001.001 0 .001 0 0z"/><path d="m91.135 328.846-.001.001-.009.008.006-.005.007-.006z"/><path d="m91.156 328.826.001-.001c.003-.002.002-.002-.001.001z"/><path d="m91.101 328.879c-.005.005-.011.01-.016.016l.039-.037.002-.002c-.01.008-.017.015-.025.023z"/><path d="m91 328.975.01-.01z"/><path d="m91 328.975c-.01.009-.015.014-.014.013l.009-.008c.002-.001.002-.002.005-.005z"/></g><path d="m150.942 271.741c.009-.009.017-.016.024-.023-.001.001-.002.002-.004.004-.005.004-.014.012-.02.019z" fill="#ffda2d"/><path d="m150.804 271.872c-.006.005-.011.01-.016.016.005-.005.01-.011.016-.016z" fill="#ffda2d"/><path d="m150.886 271.793c-.003.002-.005.005-.008.007.025-.024.046-.044.063-.06-.003.003-.006.006-.009.008-.015.016-.03.03-.046.045z" fill="#ffda2d"/><path d="m150.99 271.695c.012-.012.019-.018.018-.018l-.008.008c-.003.003-.007.006-.01.01z" fill="#ffda2d"/><path d="m150.783 271.893c-.006.006-.012.011-.018.017.006-.007.012-.012.018-.017z" fill="#ffda2d"/><path d="m150.864 271.815c.005-.005.01-.01.015-.015-.003.003-.005.005-.008.008s-.005.005-.007.007z" fill="#ffda2d"/><path d="m151 271.685.008-.008s-.003.003-.008.008z" fill="#ffda2d"/><path d="m150.607 272.06c-.006.006-.011.011-.016.015.005-.004.01-.009.016-.015z" fill="#ffda2d"/><path d="m150.933 271.749c-.014.014-.03.028-.046.044.015-.015.03-.029.046-.044z" fill="#ffda2d"/><path d="m150.838 271.84c-.004.004-.008.007-.012.011.004-.004.008-.008.012-.011z" fill="#ffda2d"/><path d="m150.561 272.104s.011-.01.03-.029c-.006.006-.012.012-.017.016-.004.005-.009.009-.013.013z" fill="#ffda2d"/><path d="m150.838 271.84c.009-.008.017-.016.026-.024.002-.002.005-.004.007-.007-.011.01-.021.02-.033.031z" fill="#ffda2d"/><path d="m150.983 271.701.005-.004-.002.001z" fill="#ffda2d"/><path d="m150.962 271.721.004-.004.001-.001z" fill="#ffda2d"/><path d="m150.787 271.888c.006-.006.011-.011.017-.016.008-.007.015-.014.022-.021-.012.012-.025.024-.039.037z" fill="#ffda2d"/><path d="m150.988 271.697.002-.002c.003-.003.007-.006.01-.01-.004.004-.008.008-.012.012z" fill="#ffda2d"/><path d="m185 150.665-4 92.37-29.99 28.64s0 0-.01.01l-5-115.52 4.52-140.5h30.88z" fill="#ffda2d"/><path d="m126 152.665-5 147.66-29.84 28.5-.01.01s-.01 0-.02.01c0 .01-.02.02-.03.03-.02.02-.03.03-.04.05-.03.02-.05.04-.06.05l-4-170.81 3.62-142.5h30.87z" fill="#ffda2d"/><path d="m91 15.665v313.31c-.01.01-.01.01-.01.01l-14.99 14.31c-8.28 0-15-6.72-15-15v-312.63z" fill="#ff9100"/><path d="m211 15.665v198.05c0 6.82-29.9 29.25-30 29.32v-227.37z" fill="#ff9100"/><path d="m151 15.665v256.02l-.01.01c-.01.01-.01.01-.02.02-.11.11-.2.19-.27.25 0 .01-.01.01-.01.02-.03.02-.05.04-.07.06l-.05.05c-.01.01-.01.01-.01.01-1.54 1.47-7.79 7.44-29.56 28.22v-284.66z" fill="#ff9100"/><path d="m150.973 271.711c.003-.003.006-.006.01-.009l.003-.003c-.004.003-.008.007-.013.012z" fill="#ffda2d"/><path d="m150.687 271.984c-.02.019-.042.04-.064.061-.006.005-.011.011-.016.016.029-.028.069-.066.114-.109-.005.005-.011.011-.017.016-.006.006-.011.011-.017.016z" fill="#ffda2d"/><path d="m150.721 271.952c.015-.014.031-.03.044-.042.006-.006.012-.011.018-.017.001-.001.003-.003.004-.004-.022.021-.045.042-.066.063z" fill="#ffda2d"/><path d="m150.967 271.716c.006-.006.011-.01.016-.015-.004.003-.006.006-.01.009-.002.002-.004.005-.006.006z" fill="#ffda2d"/><path d="m387.68 295.185c-11.91-4.45-24.69-7.06-38-7.46-1.22-.04-2.45-.06-3.68-.06-6.91 0-13.76.6-20.48 1.77-9.99 1.72-19.69 4.7-28.89 8.87-9.52 4.29-18.5 9.85-26.69 16.57l-13.94-.02-14.06-.02c-8.15-6.69-17.08-12.23-26.55-16.51-9.2-4.17-18.9-7.16-28.89-8.89-6.73-1.17-13.58-1.77-20.5-1.77-.88 0-1.76.01-2.63.03-13.69.3-26.83 2.92-39.05 7.49-.4-2.95-.39-5.72.1-7.84 13.88-60.46 68.04-104.68 131.58-104.68s117.7 44.22 131.58 104.68c.49 2.12.5 4.89.1 7.84z" fill="#fdbf00"/><path d="m355.83 285.025-6.15 2.7c-1.22-.04-2.45-.06-3.68-.06-6.91 0-13.76.6-20.48 1.77-9.99 1.72-19.69 4.7-28.89 8.87-9.52 4.29-18.5 9.85-26.69 16.57l-13.94-.02-14.06-.02c-8.15-6.69-17.08-12.23-26.55-16.51-9.2-4.17-18.9-7.16-28.89-8.89-6.73-1.17-13.58-1.77-20.5-1.77-.88 0-1.76.01-2.63.03l-7.09-3c14.26-42.99 54.56-72.03 99.72-72.03 45.18 0 85.63 29.1 99.83 72.36z" fill="#ffda2d"/><path d="m325.52 289.435c-9.99 1.72-19.69 4.7-28.89 8.87-1.97-4.13-4.61-7.98-7.85-11.43-8.61-9.16-20.25-14.21-32.78-14.21-14.34 0-27.96 6.96-36.43 18.62-1.63 2.24-3.03 4.59-4.18 7.04-9.2-4.17-18.9-7.16-28.89-8.89 2.25-5.53 5.19-10.82 8.79-15.78 14.1-19.41 36.8-30.99 60.71-30.99 20.59 0 40.51 8.62 54.64 23.66 6.45 6.87 11.46 14.68 14.88 23.11z" fill="#fdbf00"/><path d="m480.99 406.335h-206.01c-1.12-2.66-2.28-5.42-3.45-8.23-10.59-25.57-22.06-55.57-25.46-58.57-6.21-5.48-6.8-14.96-1.32-21.17 25.64-29.04 62.54-45.7 101.25-45.7 74 0 134.28 59.84 134.99 133.67z" fill="#ff9100"/><path d="m450.07 393.685-104.07 7.14-39.53 2.71c-4.71-10.59-10.72-25.41-14.88-35.68-7.76-19.12-12.41-30.44-16.23-37.87 19.24-17.48 44.4-27.32 70.64-27.32 53.16 0 97.22 39.71 104.07 91.02z" fill="#fdbf00"/><path d="m421 406.335h-30.06c-.08-2.89-.43-5.74-1.04-8.52-1.19-5.34-3.35-10.44-6.48-15.11-8.4-12.55-22.39-20.04-37.42-20.04-16.05 0-31.02 8.68-39.05 22.66-1.79 3.12-3.17 6.38-4.15 9.74-1.07 3.66-1.65 7.43-1.75 11.27h-30.1c.04-2.76.23-5.51.58-8.23 1.24-9.61 4.37-18.97 9.41-27.73 2.17-3.77 4.64-7.31 7.37-10.59 14.13-16.97 35.27-27.12 57.69-27.12 25.06 0 48.37 12.47 62.35 33.35 6.13 9.15 10.05 19.23 11.72 29.73.56 3.49.87 7.03.93 10.59z" fill="#ff9100"/><path d="m300.99 406.335h-269.98c.71-73.83 60.99-133.67 134.99-133.67 34.54 0 66.1 13.04 90 34.45 27.29 24.47 44.61 59.85 44.99 99.22z" fill="#fff261"/><path d="m269.93 392.665h-207.86c7.3-50.82 51.13-90 103.93-90 38.15 0 71.61 20.45 90 50.97 7.07 11.72 11.9 24.93 13.93 39.03z" fill="#ffda2d"/><path d="m241.05 406.335h-30.1c-.12-4.69-.97-9.28-2.53-13.67-.94-2.67-2.15-5.27-3.62-7.77-8.08-13.71-22.95-22.23-38.8-22.23-16.25 0-31.31 8.84-39.29 23.08-1.26 2.24-2.31 4.55-3.14 6.92-1.56 4.4-2.4 8.99-2.52 13.67h-30.11c.07-4.6.57-9.17 1.51-13.67 1.52-7.44 4.22-14.69 8.09-21.59 13.28-23.69 38.37-38.41 65.46-38.41 26.42 0 51.19 14.18 64.65 37 4.3 7.29 7.27 15.03 8.9 23 .93 4.5 1.43 9.07 1.5 13.67z" fill="#fff261"/><path d="m497 391.335h-482c-8.28 0-15 6.71-15 15v30c0 41.35 33.65 75 75 75h362c41.36 0 75-33.65 75-75v-30c0-8.29-6.71-15-15-15z" fill="#fff7cc"/><path d="m512 406.335v30c0 41.35-33.64 75-75 75h-181v-120h241c8.29 0 15 6.71 15 15z" fill="#ffe6b3"/><path d="m511 75.665c0 .77-.02 1.54-.06 2.3v.01c-1.25 23.75-21.59 42.69-45.74 42.69h-179.51c-14.09 18.69-36.23 30-59.69 30h-15v-105c0-8.28-6.72-15-15-15h-119.57c-8.08 0-15.03-6.2-15.41-14.27-.41-8.61 6.46-15.73 14.98-15.73h150c23.46 0 45.6 11.31 59.69 30h180.31c24.55 0 44.58 19.77 44.99 44.23 0 .26.01.51.01.77z" fill="#725d57"/><path d="m511 75.665c0 .77-.02 1.54-.06 2.3v.01c-1.21 23.74-20.91 42.69-44.94 42.69h-180.31c-14.09 18.69-36.23 30-59.69 30h-15v-75z" fill="#53433f"/></svg>