<svg id="Capa_1" enable-background="new 0 0 512 512" height="512" viewBox="0 0 512 512" width="512" xmlns="http://www.w3.org/2000/svg"><path d="m497 392h-16.838c-6.015-54.159-44.193-98.75-94.952-114.186-17.231-56.693-69.58-95.814-129.21-95.814-15.397 0-30.629 2.663-45 7.741v-39.741h15c23.455 0 45.604-11.306 59.689-30h180.311c24.813 0 45-20.187 45-45s-20.187-45-45-45h-180.311c-14.085-18.694-36.234-30-59.689-30-14.848 0-132.967 0-150 0-8.284 0-15 6.716-15 15v307.251c-15.786 19.521-26.248 43.511-29.162 69.749h-16.838c-8.284 0-15 6.716-15 15v30c0 41.355 33.645 75 75 75h362c41.355 0 75-33.645 75-75v-30c0-8.284-6.716-15-15-15zm-47.076 0h-30.433c-6.968-34.192-37.271-60-73.491-60-21.706 0-41.278 9.278-54.986 24.066-3.969-9.708-9.031-18.857-15.043-27.286 19.156-17.138 44.068-26.78 70.029-26.78 52.805 0 96.623 39.184 103.924 90zm-193.965-85.566c-9.482-8.491-20.165-15.668-31.763-21.232 8.309-8.293 19.699-13.202 31.804-13.202 12.107 0 23.498 4.911 31.807 13.205-11.505 5.497-22.239 12.63-31.848 21.229zm132.461 85.566h-84.84c6.192-17.458 22.865-30 42.42-30s36.228 12.542 42.42 30zm-37.405-119.897c-1.665-.061-3.335-.103-5.015-.103-9.468 0-18.826 1.003-27.939 2.933-13.82-20.33-37.013-32.933-62.061-32.933-25.042 0-48.229 12.596-62.051 32.917-9.021-1.907-18.368-2.917-27.949-2.917-1.68 0-3.35.042-5.015.103 16.82-35.92 53.147-60.103 95.015-60.103 41.573 0 78.037 23.847 95.015 60.103zm-86.302-219.559c2.687 4.616 7.624 7.456 12.965 7.456h188.322c8.271 0 15 6.729 15 15s-6.729 15-15 15h-188.322c-5.341 0-10.278 2.839-12.965 7.456-8.215 14.116-22.688 22.544-38.713 22.544h-15v-90h15c16.025 0 30.498 8.428 38.713 22.544zm-83.713 152.207c-11.312 7.55-21.372 16.742-30 27.433v-202.184h30zm-60-174.751v249.722c-10.678 3.786-20.743 8.875-30 15.084v-264.806zm45 272c52.805 0 96.623 39.184 103.924 90h-30.433c-6.968-34.192-37.271-60-73.491-60s-66.522 25.808-73.491 60h-30.433c7.301-50.816 51.119-90 103.924-90zm42.42 90h-84.84c6.192-17.458 22.865-30 42.42-30s36.228 12.542 42.42 30zm273.58 45c0 24.813-20.187 45-45 45h-362c-24.813 0-45-20.187-45-45v-15h452z"/></svg>