<svg height="512pt" viewBox="-34 0 512 512" width="512pt" xmlns="http://www.w3.org/2000/svg"><path d="m398.703125 46.089844c-29.722656-29.722656-69.238281-46.089844-111.269531-46.089844-42.035156 0-81.554688 16.367188-111.277344 46.089844l-116.261719 116.265625c-79.859375 79.855469-79.859375 209.792969 0 289.65625 38.679688 38.679687 90.113281 59.980469 144.828125 59.988281h.019532c54.695312 0 106.125-21.304688 144.8125-59.988281 25.871093-25.875 44.359374-58.183594 53.460937-93.425781 8.125-31.453126 8.648437-64.523438 1.59375-96.179688 55.375-61.707031 53.410156-156.996094-5.90625-216.316406zm0 0" fill="#d55f05"/><path d="m427.113281 84.886719-367.171875 367.171875c38.675782 38.648437 90.085938 59.9375 144.777344 59.941406h.023438c54.695312 0 106.125-21.304688 144.808593-59.988281 25.875-25.875 44.363281-58.183594 53.464844-93.425781 8.125-31.453126 8.648437-64.523438 1.59375-96.179688 44.445313-49.527344 51.945313-120.683594 22.503906-177.519531zm0 0" fill="#a24603"/><path d="m333.367188 140.3125h-58.175782v-24.902344c0-8.28125-6.714844-15-15-15s-15 6.71875-15 15v24.902344h-40.679687c-8.285157 0-15 6.714844-15 15s6.714843 15 15 15h40.679687v66.402344l-66.398437-.003906v-40.675782c0-8.28125-6.714844-15-15-15-8.285157 0-15 6.71875-15 15v40.675782h-26.203125c-8.285156 0-15 6.714843-15 15 0 8.28125 6.714844 15 15 15h26.203125v66.402343h-31.472657c-8.28125 0-15 6.714844-15 15 0 8.28125 6.71875 15 15 15h31.46875v31.472657c0 8.28125 6.71875 15 15 15 8.285157 0 15-6.71875 15-15v-31.472657h66.402344v26.203125c0 8.285156 6.71875 15 15 15 8.285156 0 15-6.714844 15-15v-26.203125h16.929688c8.285156 0 15-6.71875 15-15 0-8.285156-6.714844-15-15-15h-16.929688v-66.398437h11.660156c8.28125 0 15-6.71875 15-15 0-8.285156-6.71875-15-15-15h-11.660156v-66.402344h58.175782c8.285156 0 15-6.714844 15-15s-6.714844-15-15-15zm-88.175782 192.800781h-66.398437v-66.402343l66.398437.003906zm0 0" fill="#663325"/><path d="m364.621094 80.175781c-20.617188-20.617187-48.03125-31.976562-77.191406-31.976562-29.15625 0-56.570313 11.355469-77.1875 31.976562l-116.265626 116.261719c-61.066406 61.066406-61.066406 160.429688 0 221.492188 29.574219 29.578124 68.90625 45.871093 110.742188 45.875h.011719c41.828125 0 81.15625-16.292969 110.738281-45.875 44.484375-44.480469 57.808594-111.152344 34.703125-168.921876l14.449219-14.449218c42.5625-42.566406 42.5625-111.824219 0-154.382813zm-21.214844 133.167969-21.699219 21.703125c-4.511719 4.511719-5.675781 11.378906-2.90625 17.121094 23.355469 48.425781 13.488281 106.515625-24.546875 144.546875-23.914062 23.917968-55.707031 37.089844-89.523437 37.089844h-.007813c-33.824218-.003907-65.621094-13.175782-89.535156-37.089844-49.367188-49.367188-49.367188-129.695313 0-179.066406l116.265625-116.261719c14.953125-14.949219 34.832031-23.1875 55.976563-23.1875 21.148437 0 41.027343 8.234375 55.980468 23.1875 30.859375 30.867187 30.859375 81.089843-.003906 111.957031zm0 0" fill="#663325"/><g fill="#3c1b13"><path d="m163.789062 409.585938c8.285157 0 15-6.71875 15-15v-31.472657h66.402344v26.203125c0 8.285156 6.71875 15 15 15 8.285156 0 15-6.714844 15-15v-26.203125h16.929688c8.285156 0 15-6.71875 15-15 0-8.285156-6.714844-15-15-15h-16.929688v-66.398437h11.660156c8.28125 0 15-6.71875 15-15 0-8.285156-6.71875-15-15-15h-11.5625l-30.097656 30.09375v66.304687h-66.304687l-30.097657 30.097657v31.375c0 8.28125 6.71875 15 15 15zm0 0"/><path d="m365.769531 146.230469c3.351563 23.800781-4.097656 48.847656-22.363281 67.113281l-21.699219 21.703125c-4.511719 4.507813-5.675781 11.375-2.90625 17.121094 23.355469 48.425781 13.488281 106.515625-24.546875 144.546875-23.914062 23.917968-55.707031 37.089844-89.523437 37.085937h-.007813c-33.804687 0-65.578125-13.15625-89.484375-37.039062l-21.214843 21.214843c29.574218 29.546876 68.882812 45.824219 110.695312 45.824219h.011719c41.828125 0 81.15625-16.289062 110.738281-45.871093 44.484375-44.484376 57.808594-111.152344 34.703125-168.921876l14.449219-14.453124c30.523437-30.523438 39.152344-74.78125 25.894531-113.070313zm0 0"/></g></svg>