<svg height="512pt" viewBox="0 -31 512 512" width="512pt" xmlns="http://www.w3.org/2000/svg"><path d="m33.566406 335h443.175782c-18.207032-24.808594-37.214844-49.230469-56.78125-72.949219-77.6875-94.210937-112.59375-121.585937-152.617188-134.511719-19-6.128906-36.320312-9.910156-57.421875-9.210937-93.597656 3.050781-199.4375 100.300781-176.355469 216.671875zm0 0" fill="#d60024"/><path d="m255.5 123.949219v211.050781h-221.933594c-23.136718-116.148438 82.621094-213.621094 176.355469-216.671875 15.839844-.519531 30.648437 1.5625 45.578125 5.621094zm0 0" fill="#f7263f"/><path d="m0 345c0-8.285156 6.730469-15 15.027344-15h480.941406c8.300781 0 15.027344 6.714844 15.027344 15 0 57.898438-47.195313 105-105.203125 105h-300.589844c-58.007813 0-105.203125-47.101562-105.203125-105zm0 0" fill="#abf3ff"/><path d="m0 345c0 57.898438 47.191406 105 105.203125 105h150.296875v-120h-240.472656c-8.292969 0-15.027344 6.71875-15.027344 15zm0 0" fill="#d7f7ff"/><path d="m415.929688 154.011719c-6.253907-32.675781-32.144532-56.542969-68.550782-58.492188 1.136719-1.597656-2.1875 1.859375 44.386719-44.625v-5.894531c0-24.8125 20.226563-45 45.089844-45 20.308593 0 37.527343 13.472656 43.148437 31.933594 18.496094 5.613281 31.996094 22.796875 31.996094 43.066406 0 24.8125-20.226562 45-45.089844 45h-16.859375c-37.519531 37.445312-33.238281 33.199219-34.121093 34.011719zm0 0" fill="#fff1be"/><path d="m395.832031 115.941406c8.265625 7.285156 16.921875 21.519532 20.101563 38.070313 0 0-1.183594 1.21875 34.117187-34.011719h16.859375c24.859375 0 45.089844-20.191406 45.089844-45 0-20.269531-13.496094-37.449219-31.992188-43.070312zm0 0" fill="#ffdf7b"/><path d="m235.351562 277.105469c-57.398437-57.285157 1.761719-173.0625 92.589844-185.703125 59.085938-8.222656 101.710938 34.371094 93.480469 93.292968-12.617187 90.320313-128.46875 149.898438-186.070313 92.410157zm0 0" fill="#ff7225"/><path d="m234.859375 276.601562c54.523437 57.800782 173.648437.601563 186.5625-91.902343 4.320313-30.859375-5.539063-56.78125-22.042969-72.300781zm0 0" fill="#f50"/></svg>