<svg height="429pt" viewBox="0 -53 429.42 429" width="429pt" xmlns="http://www.w3.org/2000/svg"><path d="m168.664062 270.347656v-131.214844c0-18.996093 15.398438-34.394531 34.394532-34.394531h-68.394532c-33.136718 0-60 26.863281-60 60v80c0 33.140625 26.863282 60 60 60h68.394532c-18.996094 0-34.394532-15.398437-34.394532-34.390625zm0 0" fill="#ef7f72"/><path d="m294.664062 104.738281h-68.390624c18.996093 0 34.390624 15.398438 34.390624 34.390625v131.214844c0 18.996094-15.394531 34.390625-34.390624 34.390625h68.390624c33.140626 0 60-26.859375 60-60v-80c0-33.132813-26.863281-59.996094-60-59.996094zm0 0" fill="#e8383b"/><path d="m260.664062 270.347656v-131.214844c0-18.996093-15.394531-34.394531-34.390624-34.394531h-23.214844c-18.992188 0-34.390625 15.398438-34.390625 34.394531v131.214844c0 18.992188 15.398437 34.390625 34.390625 34.390625h23.214844c18.996093 0 34.390624-15.398437 34.390624-34.390625zm0 0" fill="#e95947"/><path d="m294.664062 310.738281h-160c-36.390624 0-66-29.609375-66-66v-80c0-36.390625 29.609376-66 66-66h160c36.394532 0 66 29.609375 66 66v80c0 36.394531-29.605468 66-66 66zm-160-200c-29.773437 0-54 24.222657-54 54v80c0 29.777344 24.226563 54 54 54h160c29.777344 0 54-24.222656 54-54v-80c0-29.777343-24.222656-54-54-54zm0 0" fill="#1c2d6b"/><g fill="#e95947"><path d="m13.035156 122.429688h-7.046875v8c.003907 37.921874 30.75 68.664062 68.675781 68.660156l-.003906-38.335938c-27.035156.003906-50.421875-15.617187-61.625-38.324218zm0 0"/><path d="m80.433594 270.390625c-28.722656 1.324219-52.839844 20.289063-61.757813 46.308594l-12.660156.019531v-8c-.003906-37.9375 30.730469-68.683594 68.652344-68.6875v4.722656c.003906 9.179688 2.0625 17.878906 5.765625 25.636719zm0 0"/><path d="m416.363281 122.382812c-11.199219 22.710938-34.582031 38.335938-61.617187 38.339844l.007812 38.332032c37.921875-.003907 68.660156-30.75 68.65625-68.671876v-8zm0 0"/><path d="m354.757812 240.007812-.089843.300782v4.414062c.003906 9.171875-2.0625 17.863282-5.742188 25.636719 28.753907 1.289063 52.90625 20.257813 61.839844 46.300781l12.664063.007813v-8c-.003907-37.925781-30.75-68.664063-68.671876-68.660157zm0 0"/></g><path d="m74.664062 205.070312c-41.171874 0-74.664062-33.496093-74.664062-74.664062v-8c0-1.59375.632812-3.117188 1.757812-4.246094 1.125-1.125 2.652344-1.753906 4.242188-1.753906h.003906 7.042969c2.285156 0 4.371094 1.300781 5.378906 3.347656 10.644531 21.582032 32.195313 34.984375 56.238281 34.984375 3.316407 0 6 2.6875 6 6v38.335938c0 3.308593-2.683593 5.996093-6 5.996093zm-62.621093-72.292968c1.179687 31.453125 25.648437 57.054687 56.625 60.007812v-26.28125c-23.261719-1.828125-44.011719-14.238281-56.625-33.726562zm0 0" fill="#1c2d6b"/><path d="m6.007812 322.699219c-1.59375 0-3.117187-.632813-4.242187-1.753907-1.125-1.128906-1.7578125-2.65625-1.7578125-4.246093v-8c0-41.179688 33.4882815-74.679688 74.6562495-74.679688 3.316407 0 6 2.683594 6 6v4.71875c0 8.097657 1.742188 15.855469 5.179688 23.058594.863281 1.8125.761719 3.941406-.273438 5.664063-1.03125 1.726562-2.859374 2.816406-4.871093 2.910156-25.445313 1.167968-48.09375 18.152344-56.359375 42.25-.828125 2.421875-3.105469 4.050781-5.664063 4.054687l-12.660156.019531c-.003906.003907-.007813.003907-.007813.003907zm62.675782-76.398438c-31.753906 3.023438-56.675782 29.855469-56.675782 62.398438v1.988281l2.507813-.003906c9.851563-24.003906 31.921875-41.355469 57.394531-45.453125-1.996094-6.074219-3.074218-12.410157-3.226562-18.929688zm0 0" fill="#1c2d6b"/><path d="m80.234375 269.980469c-7.535156 11.023437-11.949219 24.347656-11.949219 38.707031v8l12.664063-.003906c3.316406-9.667969 8.734375-18.355469 15.699219-25.53125-6.949219-5.695313-12.585938-12.929688-16.414063-21.171875zm0 0" fill="#e95947"/><path d="m349.1875 269.980469c7.535156 11.023437 11.949219 24.347656 11.949219 38.707031v8l-12.667969-.003906c-3.3125-9.667969-8.734375-18.355469-15.699219-25.53125 6.949219-5.695313 12.585938-12.929688 16.417969-21.171875zm0 0" fill="#e95947"/><path d="m68.285156 322.6875c-1.589844 0-3.117187-.632812-4.242187-1.753906-1.128907-1.125-1.757813-2.652344-1.757813-4.246094v-8c0-15.101562 4.492188-29.65625 12.996094-42.089844 1.214844-1.785156 3.28125-2.777344 5.449219-2.59375 2.148437.179688 4.039062 1.496094 4.949219 3.453125 3.410156 7.335938 8.519531 13.925781 14.777343 19.058594 1.296875 1.0625 2.089844 2.625 2.183594 4.296875.097656 1.675781-.515625 3.316406-1.683594 4.523438-6.414062 6.609374-11.367187 14.664062-14.328125 23.292968-.832031 2.425782-3.109375 4.054688-5.671875 4.054688l-12.667969.007812c-.003906-.003906-.003906-.003906-.003906-.003906zm11.941406-40.660156c-3.910156 8.289062-5.941406 17.351562-5.941406 26.664062v1.996094h2.515625c2.8125-6.847656 6.683594-13.316406 11.410157-19.078125-2.949219-2.933594-5.628907-6.148437-7.984376-9.582031zm0 0" fill="#1c2d6b"/><path d="m354.753906 205.070312c-3.3125 0-6-2.683593-6-6v-38.332031c0-1.589843.632813-3.117187 1.757813-4.242187s2.648437-1.757813 4.242187-1.757813c24.046875 0 45.597656-13.40625 56.238282-34.984375 1.011718-2.050781 3.097656-3.347656 5.378906-3.347656l7.046875-.003906h.003906c1.589844 0 3.117187.632812 4.238281 1.757812 1.125 1.125 1.761719 2.652344 1.761719 4.242188v8c0 41.171875-33.496094 74.667968-74.667969 74.667968zm6-38.566406v26.285156c30.976563-2.953124 55.445313-28.558593 56.625-60.007812-12.613281 19.484375-33.363281 31.894531-56.625 33.722656zm0 0" fill="#1c2d6b"/><path d="m361.136719 322.6875h-.003907l-12.664062-.003906c-2.5625 0-4.84375-1.632813-5.671875-4.054688-2.957031-8.632812-7.914063-16.6875-14.332031-23.296875-1.167969-1.203125-1.777344-2.84375-1.683594-4.519531s.890625-3.234375 2.1875-4.296875c6.257812-5.132813 11.367188-11.722656 14.777344-19.0625.910156-1.957031 2.796875-3.273437 4.949218-3.449219 2.15625-.1875 4.230469.808594 5.445313 2.589844 8.503906 12.4375 13 26.992188 13 42.09375v8c0 1.589844-.632813 3.117188-1.757813 4.242188-1.128906 1.125-2.65625 1.757812-4.246093 1.757812zm-8.515625-12.003906h2.515625v-1.996094c0-9.3125-2.035157-18.375-5.941407-26.664062-2.355468 3.433593-5.035156 6.648437-7.988281 9.582031 4.726563 5.761719 8.597657 12.230469 11.414063 19.078125zm0 0" fill="#1c2d6b"/><path d="m44.640625 71.265625c-4.125-12.65625-5.332031-30.84375-3.644531-46.777344l-18.273438-18.277343c-17.964844 17.964843-17.964844 47.089843 0 65.054687 8.980469 8.980469 20.753906 13.472656 32.523438 13.472656-3.835938 0-7.675782-4.492187-10.605469-13.472656zm0 0" fill="#ef7f72"/><path d="m87.777344 6.210938-18.277344 18.277343c1.691406 15.933594.484375 34.121094-3.644531 46.777344-2.925781 8.980469-6.765625 13.472656-10.605469 13.472656 11.773438 0 23.542969-4.492187 32.527344-13.472656 17.960937-17.964844 17.960937-47.089844 0-65.054687zm0 0" fill="#e8383b"/><path d="m65.855469 71.265625c4.128906-12.65625 5.335937-30.84375 3.644531-46.777344l-14.25 14.25-14.25-14.25c-1.691406 15.933594-.484375 34.121094 3.644531 46.777344 2.925781 8.980469 6.765625 13.472656 10.605469 13.472656s7.675781-4.492187 10.605469-13.472656zm0 0" fill="#e95947"/><path d="m363.710938 71.265625c-4.125-12.65625-5.332032-30.84375-3.644532-46.777344l-18.273437-18.277343c-17.964844 17.964843-17.964844 47.089843 0 65.054687 8.980469 8.980469 20.753906 13.472656 32.523437 13.472656-3.835937 0-7.675781-4.492187-10.605468-13.472656zm0 0" fill="#ef7f72"/><path d="m406.84375 6.210938-18.277344 18.277343c1.691406 15.933594.484375 34.121094-3.640625 46.777344-2.929687 8.980469-6.769531 13.472656-10.609375 13.472656 11.773438 0 23.546875-4.488281 32.527344-13.472656 17.964844-17.964844 17.964844-47.089844 0-65.054687zm0 0" fill="#e8383b"/><path d="m384.925781 71.265625c4.125-12.65625 5.332031-30.84375 3.640625-46.777344l-14.25 14.25-14.25-14.25c-1.6875 15.933594-.480468 34.121094 3.644532 46.777344 2.929687 8.980469 6.769531 13.472656 10.605468 13.472656 3.839844 0 7.679688-4.492187 10.609375-13.472656zm0 0" fill="#e95947"/><path d="m55.25 90.738281c-13.890625 0-26.949219-5.410156-36.769531-15.230469-20.277344-20.277343-20.277344-53.265624 0-73.539062 2.339843-2.34375 6.140625-2.34375 8.484375 0l28.285156 28.285156 28.285156-28.285156c2.25-2.25 6.234375-2.25 8.484375 0 9.824219 9.824219 15.234375 22.882812 15.234375 36.769531 0 13.890625-5.410156 26.949219-15.234375 36.773438-9.824219 9.816406-22.882812 15.226562-36.769531 15.226562zm-32.214844-75.726562c-5.054687 6.832031-7.789062 15.066406-7.789062 23.722656 0 10.6875 4.160156 20.730469 11.714844 28.289063 7.558593 7.550781 17.601562 11.714843 28.285156 11.714843 10.6875 0 20.730468-4.164062 28.285156-11.714843 7.558594-7.558594 11.714844-17.601563 11.714844-28.285157 0-8.660156-2.730469-16.894531-7.785156-23.726562l-27.96875 27.96875c-2.253907 2.25-6.234376 2.25-8.484376 0zm0 0" fill="#1c2d6b"/><path d="m72.21875 81.488281c-4.609375 1.828125-9.457031 2.847657-14.339844 3.125l-.105468.039063c-7.285157 18.410156 1.734374 39.238281 20.144531 46.523437l5.589843 2.210938c5.257813-8.566407 12.613282-15.699219 21.34375-20.707031-16.75-1.34375-30.5-14.285157-32.632812-31.191407zm0 0" fill="#e95947"/><path d="m357.347656 81.488281c4.609375 1.828125 9.457032 2.847657 14.339844 3.125l.105469.039063c7.285156 18.410156-1.734375 39.238281-20.144531 46.523437l-5.589844 2.210938c-5.257813-8.566407-12.613282-15.699219-21.34375-20.707031 16.75-1.34375 30.5-14.285157 32.632812-31.191407zm0 0" fill="#e95947"/><path d="m83.503906 139.386719c-.738281 0-1.488281-.132813-2.207031-.421875l-5.585937-2.207032c-10.394532-4.113281-18.566407-12.027343-23.003907-22.285156-4.441406-10.257812-4.625-21.628906-.511719-32.023437.613282-1.550781 1.839844-2.773438 3.394532-3.382813.589844-.226562 1.316406-.40625 1.949218-.441406 4.363282-.25 8.558594-1.164062 12.472657-2.714844 1.722656-.679687 3.667969-.53125 5.261719.414063 1.597656.945312 2.667968 2.574219 2.902343 4.414062 1.75 13.921875 13.171875 24.835938 27.15625 25.960938 2.621094.207031 4.800781 2.101562 5.375 4.667969.578125 2.566406-.585937 5.207031-2.867187 6.515624-7.851563 4.503907-14.496094 10.953126-19.222656 18.644532-1.117188 1.820312-3.078126 2.859375-5.113282 2.859375zm-21.257812-49.164063c-3.816406 14.40625 3.6875 29.757813 17.878906 35.375l1.089844.429688c2.855468-3.929688 6.136718-7.539063 9.777344-10.75-11.042969-4.867188-19.648438-14.382813-23.234376-26.089844-1.808593.441406-3.644531.785156-5.511718 1.035156zm0 0" fill="#1c2d6b"/><path d="m374.316406 90.738281c-13.886718 0-26.945312-5.410156-36.769531-15.230469-20.273437-20.277343-20.273437-53.265624 0-73.539062 2.253906-2.253906 6.238281-2.253906 8.488281 0l28.285156 28.285156 28.285157-28.285156c2.25-2.253906 6.234375-2.253906 8.484375 0 20.277344 20.273438 20.277344 53.261719 0 73.539062-9.824219 9.820313-22.882813 15.230469-36.773438 15.230469zm-32.207031-75.722656c-11.539063 15.640625-10.230469 37.851563 3.921875 52.007813 7.558594 7.550781 17.601562 11.714843 28.285156 11.714843s20.730469-4.164062 28.285156-11.714843c7.554688-7.558594 11.714844-17.601563 11.714844-28.289063 0-8.65625-2.730468-16.890625-7.789062-23.722656l-27.96875 27.96875c-2.25 2.25-6.234375 2.25-8.484375 0zm0 0" fill="#1c2d6b"/><path d="m346.0625 139.386719c-2.035156 0-3.996094-1.039063-5.113281-2.859375-4.726563-7.691406-11.371094-14.140625-19.21875-18.644532-2.28125-1.308593-3.445313-3.949218-2.867188-6.515624.574219-2.566407 2.753907-4.460938 5.375-4.667969 13.984375-1.125 25.402344-12.042969 27.15625-25.960938.234375-1.839843 1.304688-3.46875 2.898438-4.414062 1.601562-.945313 3.542969-1.09375 5.265625-.414063 3.914062 1.550782 8.109375 2.464844 12.472656 2.714844.640625.035156 1.265625.171875 1.859375.410156 1.546875.605469 2.875 1.871094 3.484375 3.414063 4.113281 10.394531 3.933594 21.769531-.507812 32.027343-4.441407 10.257813-12.613282 18.167969-23.007813 22.285157l-5.585937 2.207031c-.726563.285156-1.472657.417969-2.210938.417969zm-7.488281-24.109375c3.640625 3.210937 6.921875 6.820312 9.78125 10.75l1.085937-.429688c7.414063-2.933594 13.242188-8.578125 16.410156-15.894531 2.695313-6.226563 3.191407-13.023437 1.472657-19.480469-1.867188-.25-3.707031-.59375-5.515625-1.035156-3.585938 11.707031-12.191406 21.226562-23.234375 26.089844zm0 0" fill="#1c2d6b"/><path d="m189.546875 59.464844c0 9.355468-7.585937 16.941406-16.941406 16.941406s-16.941407-7.585938-16.941407-16.941406c0-9.355469 7.585938-16.9375 16.941407-16.9375s16.941406 7.582031 16.941406 16.9375zm0 0" fill="#4b67b0"/><path d="m273.984375 59.464844c0 9.355468-7.582031 16.941406-16.9375 16.941406s-16.941406-7.585938-16.941406-16.941406c0-9.355469 7.585937-16.9375 16.941406-16.9375s16.9375 7.582031 16.9375 16.9375zm0 0" fill="#4b67b0"/><path d="m172.605469 82.40625c-12.648438 0-22.941407-10.292969-22.941407-22.941406 0-12.648438 10.292969-22.9375 22.941407-22.9375 12.648437 0 22.941406 10.289062 22.941406 22.9375 0 12.648437-10.289063 22.941406-22.941406 22.941406zm0-33.878906c-6.03125 0-10.941407 4.90625-10.941407 10.9375s4.910157 10.941406 10.941407 10.941406 10.941406-4.910156 10.941406-10.941406-4.910156-10.9375-10.941406-10.9375zm0 0" fill="#1c2d6b"/><path d="m192.542969 104.738281c-10.207031-5.761719-16.175781-17.238281-14.660157-29.179687-1.664062.542968-3.433593.847656-5.277343.847656-2.714844 0-5.265625-.652344-7.542969-1.789062-6.453125 9.066406-7.039062 20.675781-2.332031 30.121093zm0 0" fill="#e95947"/><path d="m237.109375 104.738281c10.207031-5.761719 16.175781-17.238281 14.660156-29.179687 1.660157.542968 3.429688.847656 5.273438.847656 2.714843 0 5.269531-.652344 7.542969-1.789062 6.457031 9.066406 7.042968 20.675781 2.335937 30.121093zm0 0" fill="#e95947"/><path d="m192.542969 110.738281h-29.8125c-2.277344 0-4.355469-1.289062-5.371094-3.324219-5.84375-11.726562-4.765625-25.628906 2.816406-36.277343 1.714844-2.40625 4.925781-3.207031 7.566407-1.890625 2.582031 1.289062 5.519531 1.511718 8.273437.609375 1.953125-.640625 4.101563-.234375 5.6875 1.074219 1.585937 1.308593 2.390625 3.339843 2.132813 5.382812-1.199219 9.417969 3.378906 18.527344 11.65625 23.199219 2.375 1.339843 3.546874 4.113281 2.855468 6.75-.695312 2.636719-3.078125 4.476562-5.804687 4.476562zm-25.796875-12h10.757812c-3.21875-4.847656-5.207031-10.453125-5.722656-16.347656-1.363281-.046875-2.707031-.214844-4.023438-.503906-2.429687 5.277343-2.796874 11.285156-1.011718 16.851562zm0 0" fill="#1c2d6b"/><path d="m257.042969 82.40625c-12.648438 0-22.9375-10.292969-22.9375-22.941406 0-12.648438 10.289062-22.9375 22.9375-22.9375 12.652343 0 22.941406 10.289062 22.941406 22.9375 0 12.648437-10.289063 22.941406-22.941406 22.941406zm0-33.878906c-6.03125 0-10.9375 4.90625-10.9375 10.9375s4.90625 10.941406 10.9375 10.941406c6.035156 0 10.941406-4.910156 10.941406-10.941406s-4.90625-10.9375-10.941406-10.9375zm0 0" fill="#1c2d6b"/><path d="m266.921875 110.738281h-29.8125c-2.726563 0-5.113281-1.839843-5.804687-4.476562-.691407-2.636719.480468-5.410157 2.855468-6.75 8.277344-4.671875 12.851563-13.78125 11.65625-23.199219-.257812-2.042969.546875-4.074219 2.132813-5.382812 1.585937-1.308594 3.734375-1.714844 5.6875-1.074219 2.753906.902343 5.6875.683593 8.273437-.609375 2.644532-1.316406 5.851563-.515625 7.566406 1.890625 7.582032 10.648437 8.660157 24.546875 2.816407 36.277343-1.015625 2.039063-3.09375 3.324219-5.371094 3.324219zm-14.773437-12h10.753906c1.789062-5.566406 1.417968-11.574219-1.007813-16.851562-1.316406.289062-2.660156.457031-4.023437.503906-.515625 5.894531-2.503906 11.5-5.722656 16.347656zm0 0" fill="#1c2d6b"/><path d="m423.421875 322.6875h-.003906l-12.664063-.003906c-2.5625 0-4.84375-1.632813-5.675781-4.054688-8.273437-24.132812-30.949219-41.117187-56.425781-42.261718-2.007813-.089844-3.835938-1.179688-4.871094-2.902344-1.039062-1.722656-1.144531-3.84375-.285156-5.660156 3.433594-7.25 5.167968-15.007813 5.167968-23.070313v-4.414063c0-.574218.082032-1.140624.242188-1.6875l.089844-.300781c.75-2.554687 3.09375-4.3125 5.757812-4.3125 41.171875 0 74.667969 33.496094 74.667969 74.667969v8c0 1.589844-.632813 3.117188-1.761719 4.242188-1.121094 1.125-2.648437 1.757812-4.238281 1.757812zm-8.515625-12.003906h2.515625v-1.996094c0-32.570312-24.96875-59.414062-56.773437-62.394531-.148438 6.5-1.226563 12.832031-3.222657 18.921875 25.511719 4.078125 47.613281 21.433594 57.480469 45.46875zm0 0" fill="#1c2d6b"/></svg>