<?xml version="1.0" encoding="iso-8859-1"?>
<!-- Generator: Adobe Illustrator 19.0.0, SVG Export Plug-In . SVG Version: 6.00 Build 0)  -->
<svg version="1.1" id="Capa_1" xmlns="http://www.w3.org/2000/svg" xmlns:xlink="http://www.w3.org/1999/xlink" x="0px" y="0px"
	 viewBox="0 0 512 512" style="enable-background:new 0 0 512 512;" xml:space="preserve">
<rect x="130.432" y="60.524" style="fill:#D63322;" width="59.451" height="93.271"/>
<rect x="130.432" y="60.524" style="fill:#BF261B;" width="20.542" height="93.271"/>
<path style="fill:#FC534F;" d="M205.53,43.806c0,10.366-8.406,18.772-18.772,18.772h-53.193c-10.368,0-18.772-8.406-18.772-18.772
	V18.773C114.792,8.406,123.198,0,133.564,0h53.192c10.368,0,18.772,8.406,18.772,18.773v25.032H205.53z"/>
<path style="fill:#D63322;" d="M135.211,43.806V18.773C135.211,8.406,143.617,0,153.984,0h-20.419
	c-10.368,0-18.772,8.406-18.772,18.773v25.032c0,10.366,8.406,18.772,18.772,18.772h20.419
	C143.617,62.578,135.211,54.172,135.211,43.806z"/>
<path style="fill:#585A60;" d="M239.869,287.603c0-17.07-4.468-33.067-14.602-48.247c-0.061-0.08-0.103-0.132-0.103-0.132
	l0.01-0.005c-26.951-40.46-33.595-78.2-34.967-88.508c-6.37,0-53.733,0-60.093,0c-1.372,10.308-8.016,48.048-34.967,88.508
	l0.01,0.005c-0.001,0.002-1.834,2.696-2.412,3.527c-14.134,22.651-12.284,48.493-12.293,44.875
	c0.135,52.392,0.347,162.296-0.08,204.946c2.195,9.976,11.605,17.445,22.239,17.445c24.122,0,90.981,0,115.099,0
	c10.635,0,20.043-7.469,22.237-17.445C239.43,440.733,239.869,286.576,239.869,287.603z"/>
<path style="fill:#414356;" d="M100.401,492.57c0.518-51.659,0.08-205.994,0.08-204.967c0-17.068,4.467-33.067,14.6-48.247
	c0.063-0.08,0.105-0.132,0.105-0.132l-0.01-0.005c26.951-40.46,33.595-78.2,34.967-88.508h-20.028
	c-1.372,10.308-8.016,48.048-34.967,88.508l0.01,0.005c-0.001,0.002-1.834,2.696-2.412,3.527
	c-14.134,22.651-12.284,48.493-12.293,44.875c0.135,52.392,0.347,162.296-0.08,204.946c2.195,9.976,11.605,17.445,22.239,17.445
	c6.228,0,13.176,0,20.028,0C112.006,510.016,102.596,502.547,100.401,492.57z"/>
<rect x="80.515" y="314.456" style="fill:#EAE9E8;" width="159.231" height="137.662"/>
<path style="fill:#DDDDDD;" d="M80.579,452.121h20.028c0.1-41.414,0.024-96.82-0.064-137.665H80.515
	C80.602,355.302,80.678,410.708,80.579,452.121z"/>
<rect x="80.515" y="314.456" style="fill:#BABABA;" width="159.231" height="42.244"/>
<g>
	<path style="fill:#989DA0;" d="M80.515,314.457c0.028,12.925,0.054,27.303,0.074,42.241h20.028
		c-0.02-14.938-0.046-29.316-0.074-42.241H80.515z"/>
	<path style="fill:#989DA0;" d="M182.903,267.786c-13.415-10.373-32.103-10.395-45.548,0c-3.366,2.604-8.203,1.983-10.806-1.381
		c-2.603-3.366-1.984-8.203,1.381-10.806c18.965-14.665,45.388-14.698,64.396,0c3.366,2.603,3.984,7.44,1.381,10.806
		C191.107,269.771,186.27,270.389,182.903,267.786z"/>
</g>
<rect x="322.119" y="62.508" style="fill:#D63322;" width="59.451" height="93.271"/>
<rect x="322.119" y="62.508" style="fill:#BF261B;" width="20.542" height="93.271"/>
<path style="fill:#FC534F;" d="M397.212,45.79c0,10.366-8.406,18.772-18.772,18.772h-53.192c-10.367,0-18.772-8.406-18.772-18.772
	V20.759c0-10.369,8.406-18.773,18.772-18.773h53.192c10.367,0,18.772,8.406,18.772,18.773V45.79z"/>
<path style="fill:#D63322;" d="M326.893,45.79V20.759c0-10.369,8.406-18.773,18.772-18.773h-20.419
	c-10.367,0-18.772,8.406-18.772,18.773v25.032c0,10.366,8.406,18.772,18.772,18.772h20.419
	C335.298,64.562,326.893,56.156,326.893,45.79z"/>
<path style="fill:#585A60;" d="M431.551,289.588c0-20.554-7.57-39.367-14.704-48.38l0.01-0.005
	c-26.951-40.46-33.595-78.2-34.967-88.508c-6.37,0-53.733,0-60.093,0c-1.372,10.308-8.016,48.048-34.967,88.508l0.01,0.005
	c-0.001,0.002-1.839,2.702-2.412,3.527c-14.134,22.651-12.284,48.493-12.293,44.875c0.135,52.392,0.347,162.296-0.08,204.946
	c2.195,9.976,11.605,17.445,22.239,17.445c24.122,0,90.981,0,115.099,0c10.635,0,20.043-7.469,22.237-17.445
	C431.112,442.718,431.551,288.56,431.551,289.588z"/>
<path style="fill:#414356;" d="M292.082,494.555c0.518-51.636,0.08-205.994,0.08-204.967c0-19.921,7.203-38.903,14.704-48.38
	l-0.01-0.005c26.951-40.46,33.595-78.2,34.967-88.508h-20.028c-1.372,10.308-8.016,48.048-34.967,88.508l0.01,0.005
	c-0.001,0.002-1.839,2.702-2.412,3.527c-14.134,22.651-12.284,48.493-12.293,44.875c0.135,52.392,0.347,162.296-0.08,204.946
	c2.195,9.976,11.605,17.445,22.239,17.445c6.228,0,13.176,0,20.028,0C303.688,512,294.277,504.531,292.082,494.555z"/>
<path style="fill:#EAE9E8;" d="M364.167,316.441c-6.776,0-12.319,5.541-12.325,12.315V441.79
	c0.005,6.774,5.549,12.315,12.325,12.315h67.258V316.441H364.167z"/>
<path style="fill:#DDDDDD;" d="M364.164,316.441c-6.37,0.001-11.647,4.9-12.26,11.116c0.07,35.773,0.121,79.796,0.063,115.873
	c0.814,6.004,5.982,10.676,12.2,10.676h7.807c0.1-41.414,0.024-96.82-0.064-137.665L364.164,316.441L364.164,316.441z"/>
<path style="fill:#BABABA;" d="M351.842,328.756v29.928h79.582v-42.241h-67.26C357.39,316.443,351.848,321.983,351.842,328.756z"/>
<g>
	<path style="fill:#989DA0;" d="M351.956,358.682h20.028c-0.021-14.938-0.046-29.316-0.074-42.241h-7.745
		c-6.369,0.001-11.647,4.9-12.26,11.116C351.923,337.419,351.941,347.901,351.956,358.682z"/>
	<path style="fill:#989DA0;" d="M375.012,255.599c-3.366,2.603-3.984,7.44-1.381,10.806c2.603,3.365,7.44,3.985,10.806,1.381
		c12.967-10.028,30.813-10.358,44.099-1.06c-2.114-8.069-5.116-15.135-8.294-20.494
		C404.884,242.305,388.157,245.435,375.012,255.599z"/>
</g>
<g>
</g>
<g>
</g>
<g>
</g>
<g>
</g>
<g>
</g>
<g>
</g>
<g>
</g>
<g>
</g>
<g>
</g>
<g>
</g>
<g>
</g>
<g>
</g>
<g>
</g>
<g>
</g>
<g>
</g>
</svg>
