<svg height="512pt" viewBox="0 0 512 512" width="512pt" xmlns="http://www.w3.org/2000/svg"><path d="m512 256c0 141.386719-114.613281 256-256 256s-256-114.613281-256-256 114.613281-256 256-256 256 114.613281 256 256zm0 0" fill="#ffb74f"/><path d="m512 256c0-7.582031-.347656-15.082031-.996094-22.496094l-175.25-175.253906h-159.507812l-23.929688 82.628906c-11.113281 38.371094.019532 78.621094 26.828125 105.8125l61.167969 61.179688v117.320312h-24.550781c-14.089844 0-25.5 11.417969-25.5 25.5v1.058594l60.179687 60.179688c1.847656.039062 3.699219.070312 5.558594.070312 141.386719 0 256-114.613281 256-256zm0 0" fill="#ff8900"/><path d="m240.3125 273.675781h31.375v155.164063h-31.375zm0 0" fill="#fff5cb"/><path d="m256 273.679688h15.6875v155.160156h-15.6875zm0 0" fill="#ffe670"/><path d="m335.753906 58.25h-159.507812l-23.929688 82.628906c-14.476562 49.992188 8.777344 103.195313 55.304688 126.519532 30.445312 15.265624 66.3125 15.265624 96.757812 0 46.523438-23.324219 69.78125-76.527344 55.300782-126.519532zm0 0" fill="#fff"/><path d="m363.953125 170.910156c0 40-22.328125 77.816406-59.574219 96.496094-15.222656 7.625-31.804687 11.449219-48.378906 11.449219v-220.605469h79.746094l23.9375 82.625c2.886718 9.976562 4.269531 20.070312 4.269531 30.035156zm0 0" fill="#fff5cb"/><path d="m321.738281 450.691406v1.058594h-131.476562v-1.058594c0-14.082031 11.410156-25.5 25.5-25.5h80.476562c14.089844 0 25.5 11.417969 25.5 25.5zm0 0" fill="#fff"/><path d="m321.738281 450.691406v1.058594h-65.738281v-26.558594h40.238281c14.089844 0 25.5 11.417969 25.5 25.5zm0 0" fill="#fff5cb"/><path d="m207.621094 267.398438c30.445312 15.265624 66.3125 15.265624 96.757812 0 40.082032-20.09375 62.867188-62.363282 59.160156-105.648438h-215.078124c-3.707032 43.285156 19.078124 85.554688 59.160156 105.648438zm0 0" fill="#e7001f"/><path d="m363.933594 170.929688c0 39.992187-22.320313 77.796874-59.554688 96.476562-15.222656 7.625-31.804687 11.449219-48.378906 11.449219v-117.105469h107.535156c.265625 3.070312.398438 6.132812.398438 9.179688zm0 0" fill="#c2001b"/></svg>