<svg height="512pt" viewBox="0 0 512 512" width="512pt" xmlns="http://www.w3.org/2000/svg"><path d="m437.320312 107.441406v-97.441406h-51.230468v97.441406c0 9.648438-4.648438 18.703125-12.484375 24.328125-32.765625 23.527344-52.199219 61.394531-52.199219 101.730469v258.5c0 5.523438 4.480469 10 10 10h160.59375c5.523438 0 10-4.476562 10-10v-258.5c0-40.335938-19.429688-78.203125-52.195312-101.730469-7.835938-5.625-12.484376-14.679687-12.484376-24.328125zm0 0" fill="#ffb954"/><path d="m437.320312 10h-51.230468v100h51.230468zm0 0" fill="#8282a8"/><path d="m111.125 130.261719v-120.261719h-50.25v120.261719c-30.890625 13.417969-50.875 43.882812-50.875 77.5625v294.175781h152v-294.175781c0-33.679688-19.984375-64.144531-50.875-77.5625zm0 0" fill="#ff5d5d"/><path d="m60.875 10h50.25v84.574219h-50.25zm0 0" fill="#ffb954"/><path d="m10 256h152v165.816406h-152zm0 0" fill="#fff"/><path d="m113.636719 338.910156c0 15.261719-12.375 27.636719-27.636719 27.636719s-27.636719-12.375-27.636719-27.636719c0-15.265625 12.375-27.636718 27.636719-27.636718s27.636719 12.371093 27.636719 27.636718zm0 0" fill="#ff5d5d"/><path d="m363.390625 266h96.628906v140h-96.628906zm0 0" fill="#fff"/><path d="m245 58.082031h27.324219v71.765625c0 37.234375 8.390625 73.988282 24.542969 107.53125 16.152343 33.542969 24.542968 70.296875 24.542968 107.527344v138.09375c0 10.492188-8.507812 19-19 19h-121.410156c-10.492188 0-19-8.507812-19-19v-138.179688c0-37.175781 8.363281-73.875 24.46875-107.378906l.058594-.125c16.109375-33.503906 24.472656-70.203125 24.472656-107.378906v-71.855469zm0 0" fill="#8282a8"/><path d="m245 58.082031h-34v71.851563c0 16.679687-1.695312 33.261718-5.007812 49.503906h71.359374c-3.324218-16.269531-5.027343-32.878906-5.027343-49.589844v-71.765625zm0 0" fill="#ffb954"/><path d="m202.042969 344h79.324219v104h-79.324219zm0 0" fill="#ffb954"/><path d="m455.636719 123.648438c-5.207031-3.738282-8.316407-9.800782-8.316407-16.207032v-97.441406c0-5.523438-4.476562-10-10-10h-51.230468c-5.523438 0-10 4.476562-10 10v97.441406c0 6.40625-3.109375 12.46875-8.316406 16.207032-35.292969 25.335937-56.363282 66.402343-56.363282 109.851562v11.886719c-1.738281-4.164063-3.574218-8.285157-5.53125-12.347657-15.40625-31.996093-23.550781-67.679687-23.550781-103.191406v-109.179687c-.003906-11.398438-9.273437-20.667969-20.667969-20.667969h-39.992187c-11.398438 0-20.667969 9.269531-20.667969 20.667969v109.269531c0 35.457031-8.121094 71.089844-23.511719 103.109375l-.03125.0625c-1.929687 4.011719-3.738281 8.082031-5.457031 12.195313v-37.480469c0-35.445313-19.761719-67.675781-50.875-83.867188v-113.957031c0-5.523438-4.480469-10-10-10h-50.25c-5.519531 0-10 4.476562-10 10v113.957031c-31.113281 16.191407-50.875 48.421875-50.875 83.867188v294.175781c0 5.523438 4.476562 10 10 10h152c2.636719 0 5.027344-1.027344 6.8125-2.695312 3.707031 1.726562 7.835938 2.695312 12.1875 2.695312h121.410156c5.910156 0 11.410156-1.78125 16-4.832031 3.5 3.003906 8.035156 4.832031 13 4.832031h160.589844c11.027344 0 20-8.972656 20-20v-258.5c0-43.445312-21.070312-84.515625-56.363281-109.851562zm-59.546875-23.648438v-41.789062h31.230468v41.789062zm31.230468-80v18.210938h-31.230468v-18.210938zm-206.320312 109.9375v-61.855469h41.324219v61.765625c0 13.234375 1.070312 26.484375 3.117187 39.59375h-47.542968c2.039062-13.082031 3.101562-26.300781 3.101562-39.503906zm0-109.269531c0-.367188.300781-.667969.667969-.667969h39.992187c.367188 0 .664063.300781.664063.667969v27.414062h-41.324219zm-119.875-.667969v64.574219h-30.25v-64.574219zm-36.265625 119.433594c3.652344-1.585938 6.015625-5.1875 6.015625-9.171875v-25.6875h30.25v25.6875c0 3.980469 2.363281 7.585937 6.015625 9.171875 27.25 11.835937 44.859375 38.679687 44.859375 68.390625v38.175781h-72c-5.523438 0-10 4.476562-10 10s4.476562 10 10 10h72v145.816406h-132v-203.992187c0-29.710938 17.609375-56.554688 44.859375-68.390625zm87.140625 352.566406h-132v-60.183594h132zm150.410156 0h-121.410156c-4.964844 0-9-4.035156-9-9v-138.179688c0-35.457031 8.121094-71.089843 23.511719-103.109374l.03125-.0625c7.996093-16.636719 14.164062-34.195313 18.433593-52.210938h55.390626c4.285156 18.039062 10.46875 35.621094 18.492187 52.28125 15.40625 31.992188 23.550781 67.675781 23.550781 103.1875v138.09375c0 4.964844-4.039062 9-9 9zm189.589844 0h-160.589844v-258.5c0-37.019531 17.953125-72.015625 48.027344-93.605469 6.917969-4.96875 11.972656-11.988281 14.597656-19.894531h35.335938c2.628906 7.90625 7.683594 14.925781 14.601562 19.894531 30.074219 21.589844 48.027344 56.585938 48.027344 93.605469zm0 0"/><path d="m43.429688 266c2.628906 0 5.210937-1.070312 7.070312-2.929688 1.859375-1.859374 2.929688-4.441406 2.929688-7.070312s-1.070313-5.210938-2.929688-7.070312c-1.859375-1.859376-4.441406-2.929688-7.070312-2.929688-2.628907 0-5.210938 1.070312-7.070313 2.929688-1.859375 1.859374-2.929687 4.441406-2.929687 7.070312s1.070312 5.210938 2.929687 7.070312c1.859375 1.859376 4.441406 2.929688 7.070313 2.929688zm0 0"/><path d="m86 376.546875c20.753906 0 37.636719-16.886719 37.636719-37.636719 0-20.753906-16.882813-37.636718-37.636719-37.636718s-37.636719 16.882812-37.636719 37.636718c0 20.75 16.882813 37.636719 37.636719 37.636719zm0-55.273437c9.726562 0 17.636719 7.910156 17.636719 17.636718 0 9.722656-7.910157 17.636719-17.636719 17.636719s-17.636719-7.914063-17.636719-17.636719c0-9.726562 7.910157-17.636718 17.636719-17.636718zm0 0"/><path d="m460.019531 326c-2.628906 0-5.210937 1.070312-7.070312 2.929688-1.859375 1.859374-2.929688 4.429687-2.929688 7.070312 0 2.628906 1.070313 5.210938 2.929688 7.070312 1.859375 1.859376 4.441406 2.929688 7.070312 2.929688 2.628907 0 5.210938-1.070312 7.070313-2.929688 1.859375-1.859374 2.929687-4.441406 2.929687-7.070312s-1.070312-5.210938-2.929687-7.070312c-1.859375-1.859376-4.441406-2.929688-7.070313-2.929688zm0 0"/><path d="m353.390625 266v140c0 5.523438 4.476563 10 10 10h96.628906c5.519531 0 10-4.476562 10-10v-33c0-5.523438-4.480469-10-10-10-5.523437 0-10 4.476562-10 10v23h-76.628906v-120h76.628906v18.09375c0 5.523438 4.476563 10 10 10 5.519531 0 10-4.476562 10-10v-28.09375c0-5.523438-4.480469-10-10-10h-96.628906c-5.523437 0-10 4.476562-10 10zm0 0"/><path d="m281.367188 334h-79.324219c-5.523438 0-10 4.476562-10 10v104c0 5.523438 4.476562 10 10 10h79.324219c5.523437 0 10-4.476562 10-10v-104c0-5.523438-4.476563-10-10-10zm-10 104h-59.324219v-84h59.324219zm0 0"/></svg>